<?xml version="1.0" encoding="iso-8859-1"?>
<!-- Generator: Adobe Illustrator 19.0.0, SVG Export Plug-In . SVG Version: 6.00 Build 0)  -->
<svg version="1.1" id="Layer_1" xmlns="http://www.w3.org/2000/svg" xmlns:xlink="http://www.w3.org/1999/xlink" x="0px" y="0px"
	 viewBox="0 0 514.327 514.327" style="enable-background:new 0 0 514.327 514.327;" xml:space="preserve">
<g>
	<g>
		<path d="M454.982,130.327c-22.109-31.418-52.364-47.709-91.927-47.709c-34.909,0-60.509,26.764-67.491,73.309
			c-2.327,17.455-1.164,31.418,0,44.218c1.164,9.309,1.164,17.455,1.164,26.764c-16.291-10.473-29.091-23.273-29.091-39.564V24.436
			c0-6.982-4.655-11.636-11.636-11.636c-6.982,0-11.636,4.655-11.636,11.636v162.909c0,16.291-12.8,30.255-29.091,39.564
			c0-9.309,0-18.618,1.164-26.764c1.164-13.964,2.327-27.927,0-44.218c-6.982-46.545-32.582-73.309-67.491-73.309
			c-39.564,0-69.818,16.291-90.764,47.709C29.091,172.218,0,229.236,0,339.782c0,59.345,5.818,129.164,46.545,152.436
			c6.982,4.655,19.782,9.309,37.236,9.309c59.345,0,118.691-54.691,139.636-93.091c5.818-12.8,9.309-29.091,9.309-52.364
			c0-24.436-3.491-45.382-6.982-65.164c-1.164-5.818-6.982-10.473-13.964-9.309c-5.818,1.164-10.473,6.982-9.309,13.964
			c3.491,18.618,6.982,38.4,6.982,61.673c0,18.618-2.327,33.745-6.982,41.891c-17.455,32.582-69.818,80.291-118.691,80.291
			c-12.8,0-20.945-3.491-26.764-5.818c-34.909-19.782-34.909-104.727-34.909-132.655c0-103.564,26.764-157.091,53.527-196.655
			c18.618-26.764,41.891-38.4,73.309-38.4c23.273,0,39.564,19.782,45.382,53.527c2.327,13.964,1.164,25.6,0,38.4
			s-2.327,25.6-1.164,40.727c-6.982,3.491-15.127,5.818-20.945,6.982s-10.473,8.145-8.145,13.964
			c1.164,4.655,5.818,8.146,11.636,8.146c1.164,0,2.327,0,3.491,0c11.636-3.491,57.018-16.291,77.964-46.545
			c22.109,30.255,67.491,43.055,77.964,46.545c1.164,0,2.327,0,3.491,0c4.655,0,9.309-3.491,11.636-8.146
			c1.164-5.818-2.327-12.8-8.145-13.964s-13.964-4.655-20.945-6.982c1.164-15.127,0-27.927-1.164-40.727s-2.327-24.436,0-38.4
			c5.818-33.745,22.109-53.527,45.382-53.527c31.418,0,54.691,11.636,72.146,37.236c26.764,38.4,53.527,93.091,53.527,196.655
			c0,27.927,0,112.873-34.909,132.655c-4.655,2.327-13.964,5.818-26.764,5.818c-48.873,0-101.236-47.709-118.691-80.291
			c-4.655-8.145-6.982-23.273-6.982-41.891c0-23.273,3.491-41.891,6.982-61.673c1.164-5.818-3.491-12.8-9.309-13.964
			c-5.818-1.164-12.8,3.491-13.964,9.309c-3.491,19.782-6.982,40.727-6.982,65.164c0,23.273,3.491,40.727,9.309,52.364
			c19.782,39.564,80.291,93.091,139.636,93.091c17.455,0,30.255-4.655,38.4-9.309c40.727-23.273,46.545-94.255,46.545-152.436
			C512,229.236,482.909,172.218,454.982,130.327z"/>
	</g>
</g>
<g>
	<g>
		<path d="M359.564,285.091c-5.818-5.818-12.8-5.818-17.455-2.327c-4.655,3.491-5.818,11.636-1.164,16.291
			c12.8,16.291,20.945,34.909,20.945,51.2c0,6.982,4.655,11.636,11.636,11.636s11.636-4.655,11.636-11.636
			C385.164,329.309,375.855,304.873,359.564,285.091z"/>
	</g>
</g>
<g>
	<g>
		<path d="M422.4,281.6l-34.909-11.636c-5.818-2.327-12.8,1.164-13.964,6.982c-2.327,5.818,1.164,12.8,6.982,15.127l34.909,11.636
			c1.164,0,2.327,1.164,3.491,1.164c4.655,0,9.309-3.491,10.473-8.145C431.709,290.909,428.218,283.927,422.4,281.6z"/>
	</g>
</g>
<g>
	<g>
		<path d="M415.418,202.473c-4.655-4.655-11.636-4.655-16.291,0l-34.909,34.909c-4.655,4.655-4.655,11.636,0,16.291
			c2.327,2.327,5.818,3.491,8.145,3.491s5.818-1.164,8.145-3.491l34.909-34.909C420.073,214.109,420.073,207.127,415.418,202.473z"
			/>
	</g>
</g>
<g>
	<g>
		<path d="M171.055,282.764c-4.655-3.491-12.8-3.491-16.291,1.164C137.309,304.873,128,329.309,128,350.255
			c0,6.982,4.655,11.636,11.636,11.636s11.636-4.655,11.636-11.636c0-16.291,8.146-34.909,20.945-51.2
			C175.709,294.4,175.709,286.255,171.055,282.764z"/>
	</g>
</g>
<g>
	<g>
		<path d="M138.473,275.782c-2.327-5.818-8.145-9.309-15.127-6.982l-34.909,11.636c-4.655,2.327-8.145,9.309-5.818,15.127
			c1.164,4.655,5.818,8.145,10.473,8.145c1.164,0,2.327,0,3.491-1.164l34.909-11.636C137.309,288.582,140.8,282.764,138.473,275.782
			z"/>
	</g>
</g>
<g>
	<g>
		<path d="M147.782,237.382l-34.909-34.909c-4.655-4.655-11.636-4.655-16.291,0s-4.655,11.636,0,16.291l34.909,34.909
			c2.327,2.327,4.655,3.491,8.145,3.491s5.818-1.164,8.145-3.491C152.436,249.018,152.436,242.036,147.782,237.382z"/>
	</g>
</g>
<g>
</g>
<g>
</g>
<g>
</g>
<g>
</g>
<g>
</g>
<g>
</g>
<g>
</g>
<g>
</g>
<g>
</g>
<g>
</g>
<g>
</g>
<g>
</g>
<g>
</g>
<g>
</g>
<g>
</g>
</svg>
