<svg xmlns="http://www.w3.org/2000/svg" height="24px" viewBox="0 -960 960 960" width="24px" fill="#e3e3e3"><path d="M200-120q-33 0-56.5-23.5T120-200v-160q0-33 23.5-56.5T200-440h400v-160h80v160h80q33 0 56.5 23.5T840-360v160q0 33-23.5 56.5T760-120H200Zm0-80h560v-160H200v160Zm108.5-51.5Q320-263 320-280t-11.5-28.5Q297-320 280-320t-28.5 11.5Q240-297 240-280t11.5 28.5Q263-240 280-240t28.5-11.5Zm140 0Q460-263 460-280t-11.5-28.5Q437-320 420-320t-28.5 11.5Q380-297 380-280t11.5 28.5Q403-240 420-240t28.5-11.5Zm140 0Q600-263 600-280t-11.5-28.5Q577-320 560-320t-28.5 11.5Q520-297 520-280t11.5 28.5Q543-240 560-240t28.5-11.5ZM570-630l-58-58q26-24 58-38t70-14q38 0 70 14t58 38l-58 58q-14-14-31.5-22t-38.5-8q-21 0-38.5 8T570-630ZM470-730l-56-56q44-44 102-69t124-25q66 0 124 25t102 69l-56 56q-33-33-76.5-51.5T640-800q-50 0-93.5 18.5T470-730ZM200-200v-160 160Z"/></svg>